<?xml version="1.0" encoding="UTF-8"?>
<svg id="Layer_2" data-name="Layer 2" xmlns="http://www.w3.org/2000/svg" viewBox="0 0 104.89 47.07">
  <defs>
    <style>
      .cls-1 {
        fill: #d4af7a;
      }
    </style>
  </defs>
  <g id="Layer_1-2" data-name="Layer 1">
    <g>
      <path class="cls-1" d="M65.88.14c-3.76.01-7.66,3.16-7.69,6.96l-.19,35.79c-.01,1.58-2.46,3.9-2.15,3.76-.15.07.27.62.65.34,1.81-1.33,4.3-3.08,4.84-5.44l.22-33.65c.01-2.54,2.24-4.43,4.6-4.44l35.25-.04c.96-.74,1.61-1.54,2.46-2.29.36-.31.95-.37,1.02-1.13l-39.01.14Z"/>
      <path class="cls-1" d="M65.74,9.14v27.07c.78-.78,1.72-1.15,2.32-2.02.29-.41.72-1.33.72-2.05l.12-19.77c.01-1.12.77-1.66,1.77-1.66h22.82c1.08-1.05,2.27-1.61,2.97-3.03h-29.16c-.63,0-1.56.82-1.56,1.46Z"/>
      <path class="cls-1" d="M72.59,24.46c-.01.9.56,1.52,1.46,1.64,1.34-.18,2.69.15,4.04-.1,1.7-.32,3.05-1.85,3.44-3.52-4.83-1.2-1.54,1.21-5.43.55.02-1.3-.77-5.04.87-5.06l8.58-.12c1.31-.01,2.18-1.7,2.51-2.85l-15.4-.02-.07,9.48Z"/>
      <path class="cls-1" d="M46.89,42.89l-.2-35.79c-.02-3.8-3.93-6.95-7.68-6.96L0,0c.07.76.66.82,1.02,1.13.85.75,1.5,1.55,2.46,2.29l35.25.04c2.36.01,4.58,1.9,4.6,4.44l.22,33.65c.54,2.36,3.02,4.11,4.84,5.44.38.28.8-.27.65-.34.31.14-2.14-2.18-2.15-3.76Z"/>
      <path class="cls-1" d="M16.83,15c.33,1.15,1.2,2.84,2.51,2.85l8.58.12c1.64.02.85,3.76.87,5.06-3.89.66-.61-1.75-5.43-.55.38,1.67,1.74,3.2,3.44,3.52,1.34.25,2.7-.08,4.04.1.9-.12,1.46-.74,1.46-1.64l-.07-9.48-15.4.02Z"/>
      <path class="cls-1" d="M37.59,7.67H8.43c.7,1.43,1.88,1.99,2.97,3.05h22.82c1-.01,1.76.53,1.76,1.65l.13,19.77c0,.72.43,1.64.72,2.05.59.87,1.54,1.24,2.32,2.02V9.14c0-.64-.93-1.47-1.56-1.47Z"/>
    </g>
  </g>
</svg>