<?xml version="1.0" encoding="UTF-8"?>
<svg id="Layer_2" data-name="Layer 2" xmlns="http://www.w3.org/2000/svg" viewBox="0 0 246.99 41.03">
  <defs>
    <style>
      .cls-1 {
        fill: #0f474f;
      }

      .cls-2 {
        fill: #d4af7a;
      }
    </style>
  </defs>
  <g id="Layer_1-2" data-name="Layer 1">
    <g>
      <g>
        <path class="cls-2" d="M57.42.12c-3.28,0-6.68,2.75-6.7,6.07l-.17,31.2c0,1.38-2.14,3.4-1.87,3.28-.13.06.24.54.57.3,1.58-1.16,3.75-2.68,4.22-4.74l.19-29.33c0-2.21,1.95-3.86,4.01-3.87l30.73-.03c.84-.65,1.4-1.34,2.14-2,.31-.27.83-.32.89-.98l-34,.12Z"/>
        <path class="cls-2" d="M57.3,7.97v23.6c.68-.68,1.5-1,2.02-1.76.25-.36.63-1.16.63-1.79l.1-17.23c0-.98.67-1.45,1.54-1.45h19.89c.94-.92,1.98-1.4,2.59-2.64h-25.42c-.55,0-1.36.71-1.36,1.27Z"/>
        <path class="cls-2" d="M63.27,21.32c0,.78.49,1.32,1.27,1.43,1.17-.16,2.34.13,3.52-.09,1.48-.28,2.66-1.61,3-3.07-4.21-1.05-1.34,1.05-4.73.48.02-1.13-.67-4.39.76-4.41l7.48-.1c1.14,0,1.9-1.48,2.19-2.48l-13.42-.02-.06,8.26Z"/>
        <path class="cls-2" d="M40.87,37.38l-.17-31.2c-.02-3.31-3.43-6.06-6.69-6.07L0,0c.06.66.58.71.89.98.74.65,1.31,1.35,2.14,2l30.73.03c2.06,0,3.99,1.66,4.01,3.87l.19,29.33c.47,2.06,2.63,3.58,4.22,4.74.33.24.7-.24.57-.3.27.12-1.87-1.9-1.87-3.28Z"/>
        <path class="cls-2" d="M14.67,13.07c.29,1,1.05,2.48,2.19,2.48l7.48.1c1.43.02.74,3.28.76,4.41-3.39.58-.53-1.53-4.73-.48.33,1.46,1.52,2.79,3,3.07,1.17.22,2.35-.07,3.52.09.78-.1,1.27-.65,1.27-1.43l-.06-8.26-13.42.02Z"/>
        <path class="cls-2" d="M32.76,6.69H7.35c.61,1.25,1.64,1.73,2.59,2.66h19.89c.87,0,1.53.46,1.53,1.44l.11,17.23c0,.63.37,1.43.63,1.79.51.76,1.34,1.08,2.02,1.76V7.97c0-.56-.81-1.28-1.36-1.28Z"/>
      </g>
      <path class="cls-1" d="M101.56,31.73c.32,0,.61.1.85.31.24.21.37.48.4.79h.62c-.04-.48-.25-.87-.61-1.19-.36-.31-.78-.47-1.26-.47-.62,0-1.12.24-1.49.71-.37.48-.56,1.11-.56,1.89s.19,1.39.56,1.86c.38.47.88.7,1.49.7.56,0,1.02-.16,1.36-.48.34-.32.51-.74.51-1.28h-.62c-.01.37-.13.66-.36.88-.22.22-.52.33-.89.33-.44,0-.8-.21-1.07-.62-.24-.38-.36-.83-.36-1.37s.12-1.01.35-1.4c.27-.43.63-.64,1.08-.64Z"/>
      <path class="cls-1" d="M107.06,31.17c-.68,0-1.22.24-1.63.71-.41.48-.62,1.11-.62,1.89s.21,1.39.62,1.86.96.7,1.63.7,1.22-.23,1.62-.7c.41-.47.62-1.08.62-1.86s-.21-1.41-.62-1.89c-.4-.47-.95-.71-1.62-.71ZM108.23,35.22c-.3.36-.69.54-1.17.54s-.89-.18-1.18-.54c-.3-.37-.44-.85-.44-1.45s.15-1.11.44-1.48c.3-.37.69-.56,1.18-.56s.88.19,1.17.56c.3.37.44.86.44,1.48s-.15,1.09-.44,1.45Z"/>
      <polygon class="cls-1" points="114.1 35.2 111.6 31.27 110.98 31.27 110.98 36.26 111.6 36.26 111.6 32.34 114.1 36.26 114.72 36.26 114.72 31.27 114.1 31.27 114.1 35.2"/>
      <path class="cls-1" d="M118.46,31.73c.32,0,.6.1.85.31.24.21.37.48.4.79h.62c-.04-.48-.25-.87-.61-1.19-.36-.31-.78-.47-1.26-.47-.62,0-1.12.24-1.49.71-.37.48-.56,1.11-.56,1.89s.19,1.39.56,1.86c.38.47.88.7,1.49.7.56,0,1.02-.16,1.36-.48.34-.32.51-.74.51-1.28h-.62c-.01.37-.13.66-.36.88-.22.22-.52.33-.89.33-.44,0-.8-.21-1.07-.62-.24-.38-.36-.83-.36-1.37s.12-1.01.35-1.4c.27-.43.63-.64,1.08-.64Z"/>
      <rect class="cls-1" x="121.94" y="31.27" width=".62" height="4.99"/>
      <polygon class="cls-1" points="124.48 36.26 127.91 36.26 127.91 35.67 125.1 35.67 125.1 33.98 127.6 33.98 127.6 33.39 125.1 33.39 125.1 31.86 127.91 31.86 127.91 31.27 124.48 31.27 124.48 36.26"/>
      <path class="cls-1" d="M133.07,33.48c.14-.22.21-.47.21-.75,0-.44-.15-.8-.44-1.06-.3-.27-.69-.4-1.18-.4h-2.15v4.99h.62v-2.05h1.28c.27,0,.51.07.71.21.21.15.32.35.32.59l.03.94c0,.07.04.16.11.28l.02.03h.62l-.03-.06c-.06-.09-.09-.17-.09-.22l-.03-.97c0-.21-.06-.41-.16-.6-.1-.18-.25-.33-.43-.46.25-.09.45-.25.6-.48ZM132.39,33.4c-.19.17-.43.25-.73.25h-1.53v-1.82h1.53c.3,0,.54.08.73.25.18.17.27.38.27.65s-.09.5-.27.67Z"/>
      <path class="cls-1" d="M136.85,34.21h1.38c0,.47-.13.85-.38,1.12-.25.28-.59.43-1,.43-.45,0-.82-.18-1.08-.54-.27-.37-.41-.85-.41-1.45s.14-1.11.41-1.48c.27-.37.63-.56,1.08-.56.32,0,.61.1.85.31.25.21.41.47.46.79l.62-.07c-.08-.46-.31-.85-.67-1.15-.37-.3-.79-.44-1.26-.44-.64,0-1.16.24-1.54.71-.38.48-.57,1.11-.57,1.89s.19,1.39.57,1.86c.39.47.9.7,1.54.7.3,0,.57-.06.83-.18.27-.13.48-.3.64-.53l.09.53h.44v-2.54h-2v.62Z"/>
      <polygon class="cls-1" points="140.59 36.26 144.02 36.26 144.02 35.67 141.22 35.67 141.22 33.98 143.71 33.98 143.71 33.39 141.22 33.39 141.22 31.86 144.02 31.86 144.02 31.27 140.59 31.27 140.59 36.26"/>
      <polygon class="cls-1" points="151.15 35.2 149.59 31.27 148.81 31.27 148.81 36.26 149.44 36.26 149.44 32.52 150.93 36.26 151.37 36.26 152.87 32.52 152.87 36.26 153.49 36.26 153.49 31.27 152.71 31.27 151.15 35.2"/>
      <polygon class="cls-1" points="155.4 36.26 158.83 36.26 158.83 35.67 156.03 35.67 156.03 33.98 158.52 33.98 158.52 33.39 156.03 33.39 156.03 31.86 158.83 31.86 158.83 31.27 155.4 31.27 155.4 36.26"/>
      <path class="cls-1" d="M161.99,31.27h-1.56v4.99h1.56c.68,0,1.22-.23,1.62-.68.41-.45.62-1.06.62-1.81s-.21-1.36-.62-1.81c-.41-.45-.95-.68-1.62-.68ZM163.17,35.18c-.3.35-.69.53-1.17.53h-.94v-3.87h.94c.49,0,.88.18,1.17.53.3.35.44.82.44,1.41s-.15,1.06-.44,1.42Z"/>
      <rect class="cls-1" x="165.91" y="31.27" width=".62" height="4.99"/>
      <path class="cls-1" d="M170.26,31.73c.32,0,.6.1.85.31.24.21.37.48.4.79h.62c-.04-.48-.25-.87-.61-1.19-.36-.31-.78-.47-1.26-.47-.62,0-1.12.24-1.49.71-.37.48-.56,1.11-.56,1.89s.19,1.39.56,1.86c.38.47.88.7,1.49.7.56,0,1.02-.16,1.36-.48.34-.32.51-.74.51-1.28h-.62c-.01.37-.13.66-.36.88-.22.22-.52.33-.89.33-.44,0-.8-.21-1.07-.62-.24-.38-.36-.83-.36-1.37s.12-1.01.35-1.4c.27-.43.63-.64,1.08-.64Z"/>
      <rect class="cls-1" x="173.75" y="31.27" width=".62" height="4.99"/>
      <polygon class="cls-1" points="179.4 35.2 176.91 31.27 176.29 31.27 176.29 36.26 176.91 36.26 176.91 32.34 179.4 36.26 180.03 36.26 180.03 31.27 179.4 31.27 179.4 35.2"/>
      <polygon class="cls-1" points="181.94 36.26 185.37 36.26 185.37 35.67 182.56 35.67 182.56 33.98 185.06 33.98 185.06 33.39 182.56 33.39 182.56 31.86 185.37 31.86 185.37 31.27 181.94 31.27 181.94 36.26"/>
      <path class="cls-1" d="M193.12,33.71c.19-.09.34-.23.46-.42.11-.19.16-.39.16-.62,0-.39-.15-.73-.43-1-.29-.27-.63-.4-1.03-.4h-2.12v4.99h2.12c.44,0,.81-.13,1.13-.39.33-.27.49-.6.49-1.01,0-.25-.07-.47-.22-.68-.14-.2-.32-.36-.56-.47ZM190.78,31.83h1.49c.23,0,.43.08.6.25.16.17.25.36.25.59,0,.21-.09.39-.25.54-.16.14-.36.21-.59.21h-1.49v-1.59ZM192.97,35.47c-.2.15-.43.23-.7.23h-1.49v-1.72h1.49c.27,0,.5.08.7.25.2.17.3.38.3.63s-.1.45-.3.62Z"/>
      <polygon class="cls-1" points="197.46 33.71 195.81 31.27 195.16 31.27 197.13 34.21 197.13 36.26 197.79 36.26 197.79 34.21 199.77 31.27 199.11 31.27 197.46 33.71"/>
      <polygon class="cls-1" points="206.1 35.26 204.72 31.27 204.1 31.27 205.78 36.26 206.41 36.26 208.1 31.27 207.47 31.27 206.1 35.26"/>
      <path class="cls-1" d="M210.89,31.27l-1.63,4.99h.62l.5-1.49h1.81l.5,1.49h.62l-1.62-4.99h-.8ZM210.57,34.21l.72-2.16.72,2.16h-1.45Z"/>
      <polygon class="cls-1" points="215.48 31.27 214.86 31.27 214.86 36.26 218.1 36.26 218.1 35.7 215.48 35.7 215.48 31.27"/>
      <polygon class="cls-1" points="219.63 36.26 223.06 36.26 223.06 35.67 220.26 35.67 220.26 33.98 222.75 33.98 222.75 33.39 220.26 33.39 220.26 31.86 223.06 31.86 223.06 31.27 219.63 31.27 219.63 36.26"/>
      <polygon class="cls-1" points="227.78 35.2 225.29 31.27 224.66 31.27 224.66 36.26 225.29 36.26 225.29 32.34 227.78 36.26 228.41 36.26 228.41 31.27 227.78 31.27 227.78 35.2"/>
      <path class="cls-1" d="M232.14,31.73c.32,0,.6.1.85.31.24.21.37.48.4.79h.62c-.04-.48-.25-.87-.61-1.19-.36-.31-.78-.47-1.26-.47-.62,0-1.12.24-1.49.71-.37.48-.56,1.11-.56,1.89s.19,1.39.56,1.86c.38.47.88.7,1.49.7.56,0,1.02-.16,1.36-.48.34-.32.51-.74.51-1.28h-.62c-.01.37-.13.66-.36.88-.22.22-.52.33-.89.33-.44,0-.8-.21-1.07-.62-.24-.38-.36-.83-.36-1.37s.12-1.01.35-1.4c.27-.43.63-.64,1.08-.64Z"/>
      <rect class="cls-1" x="235.63" y="31.27" width=".62" height="4.99"/>
      <path class="cls-1" d="M239.42,31.27l-1.62,4.99h.62l.5-1.49h1.81l.5,1.49h.62l-1.62-4.99h-.8ZM239.1,34.21l.72-2.16.72,2.16h-1.44Z"/>
      <path class="cls-1" d="M113.43,6.32v-.6c-.6.06-1.34.09-2.24.09-1.16,0-2.3-.03-3.44-.09v.6c.88.02,1.53.17,1.96.45.43.28.64.73.64,1.34,0,.56-.2,1.37-.6,2.45l-4.87,12.64-5.41-14.37c-.24-.6-.36-1.07-.36-1.4,0-.4.16-.67.49-.82.33-.15.87-.24,1.63-.28v-.6c-.84.06-2.11.09-3.82.09-1.33,0-2.4-.03-3.2-.09v.6c.9.04,1.58.68,2.06,1.91l7.29,18.79h.48l7.02-18.1c.58-1.49,1.36-2.36,2.36-2.6Z"/>
      <path class="cls-1" d="M125.59,26.27c-.72-.04-1.24-.12-1.57-.24-.33-.12-.55-.35-.67-.69-.12-.34-.18-.89-.18-1.64v-14.82c0-.76.06-1.3.18-1.64.12-.34.34-.57.67-.69s.85-.2,1.57-.24v-.6c-.94.06-2.2.09-3.79.09-1.71,0-2.99-.03-3.82-.09v.6c.72.04,1.24.12,1.57.24s.55.35.67.69c.12.34.18.89.18,1.64v14.82c0,.76-.06,1.3-.18,1.64-.12.34-.34.57-.67.69-.33.12-.85.2-1.57.24v.6c.84-.06,2.11-.09,3.82-.09,1.61,0,2.88.03,3.79.09v-.6Z"/>
      <path class="cls-1" d="M139.63,5.81c-3.96,0-6.77-.03-8.42-.09.14,1.41.21,2.69.21,3.82,0,1-.03,1.81-.09,2.45h.69c.16-1.53.36-2.67.6-3.42s.66-1.29,1.25-1.64,1.51-.52,2.75-.52h1.61v17c0,.84-.08,1.44-.24,1.82-.16.38-.44.64-.84.78s-1.05.23-1.94.27v.6c.96-.06,2.43-.09,4.42-.09s3.36.03,4.39.09v-.6c-.9-.04-1.54-.13-1.94-.27s-.68-.4-.84-.78-.24-.99-.24-1.82V6.41h1.61c1.23,0,2.15.17,2.75.52s1.02.9,1.25,1.64c.24.75.44,1.89.6,3.42h.69c-.06-.64-.09-1.45-.09-2.45,0-1.14.07-2.41.21-3.82-1.65.06-4.45.09-8.39.09Z"/>
      <path class="cls-1" d="M169.98,26.27c-.9-.04-1.58-.68-2.06-1.91l-7.29-18.79h-.48l-7.02,18.1c-.58,1.49-1.36,2.36-2.36,2.6v.6c.6-.06,1.34-.09,2.24-.09,1.16,0,2.3.03,3.44.09v-.6c-.88-.02-1.53-.17-1.96-.45-.43-.28-.64-.73-.64-1.34,0-.56.2-1.37.6-2.45l1.22-3.17h7.23l1.82,4.9c.24.6.36,1.07.36,1.4,0,.4-.16.67-.49.82s-.87.24-1.63.28v.6c.84-.06,2.11-.09,3.82-.09,1.33,0,2.4.03,3.2.09v-.6ZM155.91,18.27l3.41-8.93,3.35,8.93h-6.75Z"/>
      <path class="cls-1" d="M189.34,20.6h-.69c-.14,1.47-.36,2.6-.66,3.38s-.77,1.34-1.42,1.69c-.65.35-1.59.52-2.82.52h-2.18c-.72,0-1.24-.05-1.57-.16s-.55-.33-.67-.67c-.12-.34-.18-.89-.18-1.64v-14.82c0-.76.06-1.3.18-1.64.12-.34.34-.57.67-.69s.85-.2,1.57-.24v-.6c-.94.06-2.2.09-3.79.09-1.71,0-2.99-.03-3.82-.09v.6c.72.04,1.24.12,1.57.24s.55.35.67.69c.12.34.18.89.18,1.64v14.82c0,.76-.06,1.3-.18,1.64-.12.34-.34.57-.67.69-.33.12-.85.2-1.57.24v.6c1.95-.06,4.84-.09,8.66-.09,3.21,0,5.49.03,6.84.09-.14-1.41-.21-2.69-.21-3.82,0-1.02.03-1.83.09-2.45Z"/>
      <path class="cls-1" d="M195.01,5.72v.6c.72.04,1.24.12,1.57.24s.55.35.67.69c.12.34.18.89.18,1.64v14.82c0,.76-.06,1.3-.18,1.64-.12.34-.34.57-.67.69-.33.12-.85.2-1.57.24v.6c.84-.06,2.11-.09,3.82-.09,1.61,0,2.88.03,3.79.09v-.6c-.72-.04-1.24-.12-1.57-.24-.33-.12-.55-.35-.67-.69-.12-.34-.18-.89-.18-1.64v-14.82c0-.76.06-1.3.18-1.64.12-.34.34-.57.67-.69s.85-.2,1.57-.24v-.6c-.94.06-2.2.09-3.79.09-1.71,0-2.99-.03-3.82-.09Z"/>
      <path class="cls-1" d="M224.86,9.54c0-1.14.07-2.41.21-3.82-1.65.06-4.45.09-8.39.09s-6.77-.03-8.42-.09c.14,1.41.21,2.69.21,3.82,0,1-.03,1.81-.09,2.45h.69c.16-1.53.36-2.67.6-3.42.24-.75.66-1.29,1.25-1.64.6-.35,1.51-.52,2.75-.52h1.61v17c0,.84-.08,1.44-.24,1.82s-.44.64-.84.78-1.05.23-1.94.27v.6c.96-.06,2.43-.09,4.42-.09s3.36.03,4.39.09v-.6c-.9-.04-1.54-.13-1.94-.27s-.68-.4-.84-.78c-.16-.38-.24-.99-.24-1.82V6.41h1.61c1.24,0,2.15.17,2.75.52s1.02.9,1.25,1.64.44,1.89.6,3.42h.69c-.06-.64-.09-1.45-.09-2.45Z"/>
      <path class="cls-1" d="M244.75,5.81c-1.16,0-2.3-.03-3.44-.09v.6c.88.02,1.53.15,1.97.39.44.24.66.64.66,1.2,0,.66-.27,1.51-.81,2.57l-3.82,7.59-4.96-9.53c-.2-.4-.3-.75-.3-1.05,0-.76.7-1.14,2.09-1.14v-.63c-.86.06-2.25.09-4.18.09-.98,0-1.85-.03-2.63-.09v.63c.26,0,.52.11.79.34.27.23.58.67.94,1.33l6.06,11.2v4.48c0,.76-.06,1.3-.18,1.64-.12.34-.34.57-.67.69-.33.12-.85.2-1.57.24v.6c.84-.06,2.11-.09,3.82-.09,1.61,0,2.88.03,3.79.09v-.6c-.72-.04-1.24-.12-1.57-.24-.33-.12-.55-.35-.67-.69-.12-.34-.18-.89-.18-1.64v-5.44l4.69-9.29c.44-.86.85-1.49,1.22-1.9.38-.41.77-.66,1.16-.76v-.6c-.6.06-1.34.09-2.24.09Z"/>
    </g>
  </g>
</svg>