<?xml version="1.0" encoding="UTF-8"?>
<svg id="Layer_2" data-name="Layer 2" xmlns="http://www.w3.org/2000/svg" viewBox="0 0 283.36 47.07">
  <defs>
    <style>
      .cls-1 {
        fill: #d4af7a;
      }
    </style>
  </defs>
  <g id="Layer_1-2" data-name="Layer 1">
    <g>
      <path class="cls-1" d="M58.19,7.1l-.19,35.79c-.01,1.58-2.46,3.9-2.15,3.76-.15.07.27.62.65.34,1.81-1.33,4.3-3.08,4.84-5.44l.22-33.65c.01-2.54,2.24-4.43,4.6-4.44l35.25-.04c.96-.74,1.61-1.54,2.46-2.29.36-.31.95-.37,1.02-1.13l-39.01.14c-3.76.01-7.66,3.16-7.69,6.96Z"/>
      <path class="cls-1" d="M65.74,9.14v27.07c.78-.78,1.72-1.15,2.32-2.02.29-.41.72-1.33.72-2.05l.12-19.77c.01-1.12.77-1.66,1.77-1.66h22.82c1.08-1.05,2.27-1.61,2.97-3.03h-29.16c-.63,0-1.56.82-1.56,1.46Z"/>
      <path class="cls-1" d="M72.59,24.46c-.01.9.56,1.52,1.46,1.64,1.34-.18,2.69.15,4.04-.1,1.7-.32,3.05-1.85,3.44-3.52-4.83-1.2-1.54,1.21-5.43.55.02-1.3-.77-5.04.87-5.06l8.58-.12c1.31-.01,2.18-1.7,2.51-2.85l-15.4-.02-.07,9.48Z"/>
      <path class="cls-1" d="M46.89,42.89l-.2-35.79c-.02-3.8-3.93-6.95-7.68-6.96L0,0c.07.76.66.82,1.02,1.13.85.75,1.5,1.55,2.46,2.29l35.25.04c2.36.01,4.58,1.9,4.6,4.44l.22,33.65c.54,2.36,3.02,4.11,4.84,5.44.38.28.8-.27.65-.34.31.14-2.14-2.18-2.15-3.76Z"/>
      <path class="cls-1" d="M16.83,15c.33,1.15,1.2,2.84,2.51,2.85l8.58.12c1.64.02.85,3.76.87,5.06-3.89.66-.61-1.75-5.43-.55.38,1.67,1.74,3.2,3.44,3.52,1.34.25,2.7-.08,4.04.1.9-.12,1.46-.74,1.46-1.64l-.07-9.48-15.4.02Z"/>
      <path class="cls-1" d="M37.59,7.67H8.43c.7,1.43,1.88,1.99,2.97,3.05h22.82c1-.01,1.76.53,1.76,1.65l.13,19.77c0,.72.43,1.64.72,2.05.59.87,1.54,1.24,2.32,2.02V9.14c0-.64-.93-1.47-1.56-1.47Z"/>
      <path class="cls-1" d="M116.52,36.4c.37,0,.69.12.97.36.28.25.43.55.46.9h.72c-.05-.55-.28-1-.7-1.37-.41-.36-.89-.54-1.45-.54-.71,0-1.28.27-1.71.81-.43.55-.64,1.27-.64,2.17s.21,1.59.64,2.13c.43.53,1,.8,1.71.8.65,0,1.17-.19,1.56-.56.39-.36.58-.85.58-1.47h-.72c-.01.42-.15.76-.41,1.01-.26.25-.6.38-1.02.38-.51,0-.92-.24-1.22-.72-.28-.43-.41-.96-.41-1.57s.13-1.16.4-1.6c.31-.49.72-.73,1.23-.73Z"/>
      <path class="cls-1" d="M122.82,35.76c-.78,0-1.4.27-1.87.81-.47.55-.71,1.27-.71,2.17s.24,1.59.71,2.13,1.1.8,1.87.8,1.4-.27,1.86-.8c.47-.53.71-1.24.71-2.13s-.24-1.62-.71-2.17c-.46-.54-1.09-.81-1.86-.81ZM124.17,40.41c-.34.41-.79.62-1.35.62s-1.02-.21-1.36-.62c-.34-.42-.51-.98-.51-1.67s.17-1.27.51-1.69c.34-.43.79-.64,1.36-.64s1.01.21,1.35.64c.34.42.51.99.51,1.69s-.17,1.25-.51,1.67Z"/>
      <polygon class="cls-1" points="130.9 40.39 128.04 35.88 127.32 35.88 127.32 41.6 128.04 41.6 128.04 37.1 130.9 41.6 131.62 41.6 131.62 35.88 130.9 35.88 130.9 40.39"/>
      <path class="cls-1" d="M135.9,36.4c.37,0,.69.12.97.36.28.25.43.55.46.9h.71c-.05-.55-.28-1-.7-1.37-.41-.36-.89-.54-1.45-.54-.71,0-1.28.27-1.71.81-.43.55-.64,1.27-.64,2.17s.21,1.59.64,2.13c.43.53,1,.8,1.71.8.65,0,1.17-.19,1.56-.56.39-.36.58-.85.58-1.47h-.71c-.01.42-.15.76-.42,1.01-.26.25-.6.38-1.02.38-.51,0-.92-.24-1.22-.72-.28-.43-.41-.96-.41-1.57s.13-1.16.41-1.6c.31-.49.72-.73,1.23-.73Z"/>
      <rect class="cls-1" x="139.9" y="35.88" width=".72" height="5.73"/>
      <polygon class="cls-1" points="142.81 41.6 146.75 41.6 146.75 40.92 143.52 40.92 143.52 38.98 146.39 38.98 146.39 38.31 143.52 38.31 143.52 36.55 146.75 36.55 146.75 35.88 142.81 35.88 142.81 41.6"/>
      <path class="cls-1" d="M152.67,38.41c.16-.26.25-.54.25-.86,0-.51-.17-.91-.51-1.22-.34-.31-.79-.46-1.36-.46h-2.47v5.73h.72v-2.35h1.47c.31,0,.58.08.81.24.24.18.37.4.37.68l.04,1.07c0,.08.04.18.12.32l.02.04h.72l-.04-.07c-.07-.11-.1-.19-.1-.25l-.04-1.11c0-.24-.06-.47-.19-.69-.12-.21-.28-.38-.49-.53.28-.11.51-.29.69-.55ZM151.89,38.32c-.21.19-.49.29-.84.29h-1.75v-2.09h1.75c.34,0,.62.09.84.28.21.19.31.44.31.75s-.1.57-.31.77Z"/>
      <path class="cls-1" d="M157.01,39.25h1.58c0,.54-.14.97-.43,1.29-.29.33-.67.49-1.15.49-.52,0-.94-.21-1.24-.62-.31-.42-.47-.98-.47-1.67s.16-1.27.47-1.69c.31-.43.72-.64,1.24-.64.37,0,.7.12.98.36.29.24.46.54.53.9l.72-.08c-.09-.53-.35-.97-.77-1.32-.42-.34-.9-.51-1.45-.51-.74,0-1.33.27-1.77.81-.44.55-.66,1.27-.66,2.17s.22,1.59.66,2.13c.45.53,1.04.8,1.77.8.34,0,.66-.07.95-.21.31-.14.55-.35.74-.61l.1.61h.51v-2.92h-2.3v.71Z"/>
      <polygon class="cls-1" points="161.3 41.6 165.23 41.6 165.23 40.92 162.01 40.92 162.01 38.98 164.88 38.98 164.88 38.31 162.01 38.31 162.01 36.55 165.23 36.55 165.23 35.88 161.3 35.88 161.3 41.6"/>
      <polygon class="cls-1" points="173.41 40.39 171.62 35.88 170.73 35.88 170.73 41.6 171.45 41.6 171.45 37.31 173.16 41.6 173.66 41.6 175.38 37.31 175.38 41.6 176.1 41.6 176.1 35.88 175.2 35.88 173.41 40.39"/>
      <polygon class="cls-1" points="178.29 41.6 182.23 41.6 182.23 40.92 179.01 40.92 179.01 38.98 181.87 38.98 181.87 38.31 179.01 38.31 179.01 36.55 182.23 36.55 182.23 35.88 178.29 35.88 178.29 41.6"/>
      <path class="cls-1" d="M185.85,35.88h-1.79v5.73h1.79c.78,0,1.4-.26,1.86-.78.47-.52.71-1.21.71-2.08s-.24-1.56-.71-2.08c-.46-.52-1.09-.78-1.86-.78ZM187.2,40.36c-.34.4-.79.6-1.35.6h-1.07v-4.44h1.07c.56,0,1.01.2,1.35.6.34.4.51.94.51,1.61s-.17,1.21-.51,1.62Z"/>
      <rect class="cls-1" x="190.34" y="35.88" width=".72" height="5.73"/>
      <path class="cls-1" d="M195.34,36.4c.37,0,.69.12.97.36.28.25.43.55.46.9h.71c-.05-.55-.28-1-.7-1.37-.41-.36-.89-.54-1.45-.54-.71,0-1.28.27-1.71.81-.43.55-.64,1.27-.64,2.17s.21,1.59.64,2.13c.43.53,1,.8,1.71.8.65,0,1.17-.19,1.56-.56.39-.36.58-.85.58-1.47h-.71c-.01.42-.15.76-.42,1.01-.26.25-.6.38-1.02.38-.51,0-.92-.24-1.22-.72-.28-.43-.41-.96-.41-1.57s.13-1.16.41-1.6c.31-.49.72-.73,1.23-.73Z"/>
      <rect class="cls-1" x="199.34" y="35.88" width=".72" height="5.73"/>
      <polygon class="cls-1" points="205.82 40.39 202.96 35.88 202.25 35.88 202.25 41.6 202.96 41.6 202.96 37.1 205.82 41.6 206.54 41.6 206.54 35.88 205.82 35.88 205.82 40.39"/>
      <polygon class="cls-1" points="208.73 41.6 212.67 41.6 212.67 40.92 209.45 40.92 209.45 38.98 212.31 38.98 212.31 38.31 209.45 38.31 209.45 36.55 212.67 36.55 212.67 35.88 208.73 35.88 208.73 41.6"/>
      <path class="cls-1" d="M221.56,38.67c.22-.11.4-.27.53-.48.12-.21.19-.45.19-.71,0-.45-.17-.83-.5-1.15-.33-.31-.73-.46-1.19-.46h-2.43v5.73h2.43c.5,0,.93-.15,1.3-.45.38-.31.57-.69.57-1.16,0-.28-.08-.54-.25-.78-.16-.23-.37-.41-.64-.54ZM218.88,36.52h1.71c.27,0,.5.09.69.28.19.19.28.42.28.68,0,.25-.1.45-.29.62-.19.16-.41.25-.68.25h-1.71v-1.83ZM221.39,40.7c-.23.18-.49.26-.8.26h-1.71v-1.98h1.71c.31,0,.57.09.8.28.23.19.35.44.35.73s-.12.52-.35.71Z"/>
      <polygon class="cls-1" points="226.54 38.67 224.65 35.88 223.9 35.88 226.17 39.25 226.17 41.6 226.92 41.6 226.92 39.25 229.19 35.88 228.44 35.88 226.54 38.67"/>
      <polygon class="cls-1" points="236.46 40.45 234.87 35.88 234.16 35.88 236.09 41.6 236.8 41.6 238.74 35.88 238.03 35.88 236.46 40.45"/>
      <path class="cls-1" d="M241.94,35.88l-1.87,5.73h.72l.57-1.71h2.07l.57,1.71h.72l-1.86-5.73h-.92ZM241.58,39.25l.83-2.48.83,2.48h-1.66Z"/>
      <polygon class="cls-1" points="247.22 35.88 246.5 35.88 246.5 41.6 250.22 41.6 250.22 40.96 247.22 40.96 247.22 35.88"/>
      <polygon class="cls-1" points="251.98 41.6 255.91 41.6 255.91 40.92 252.69 40.92 252.69 38.98 255.56 38.98 255.56 38.31 252.69 38.31 252.69 36.55 255.91 36.55 255.91 35.88 251.98 35.88 251.98 41.6"/>
      <polygon class="cls-1" points="261.33 40.39 258.46 35.88 257.75 35.88 257.75 41.6 258.46 41.6 258.46 37.1 261.33 41.6 262.04 41.6 262.04 35.88 261.33 35.88 261.33 40.39"/>
      <path class="cls-1" d="M266.33,36.4c.37,0,.69.12.97.36.28.25.43.55.46.9h.71c-.05-.55-.28-1-.7-1.37-.41-.36-.89-.54-1.45-.54-.71,0-1.28.27-1.71.81-.43.55-.64,1.27-.64,2.17s.21,1.59.64,2.13c.43.53,1,.8,1.71.8.65,0,1.17-.19,1.56-.56.39-.36.58-.85.58-1.47h-.71c-.01.42-.15.76-.42,1.01-.26.25-.6.38-1.02.38-.51,0-.92-.24-1.22-.72-.28-.43-.41-.96-.41-1.57s.13-1.16.41-1.6c.31-.49.72-.73,1.23-.73Z"/>
      <rect class="cls-1" x="270.33" y="35.88" width=".72" height="5.73"/>
      <path class="cls-1" d="M274.67,35.88l-1.86,5.73h.72l.57-1.71h2.07l.57,1.71h.72l-1.86-5.73h-.92ZM274.31,39.25l.83-2.48.83,2.48h-1.66Z"/>
      <path class="cls-1" d="M130.14,7.25v-.69c-.69.07-1.54.1-2.57.1-1.33,0-2.64-.03-3.94-.1v.69c1,.02,1.75.19,2.25.51.49.32.74.83.74,1.54,0,.64-.23,1.58-.69,2.81l-5.59,14.5-6.2-16.48c-.27-.69-.41-1.22-.41-1.61,0-.46.19-.77.57-.94.38-.17,1-.28,1.87-.33v-.69c-.96.07-2.42.1-4.39.1-1.53,0-2.75-.03-3.67-.1v.69c1.03.05,1.82.78,2.37,2.19l8.36,21.56h.55l8.05-20.77c.66-1.71,1.56-2.71,2.71-2.98Z"/>
      <path class="cls-1" d="M144.08,30.14c-.82-.05-1.42-.14-1.8-.27-.38-.14-.63-.4-.77-.79-.14-.39-.21-1.02-.21-1.88V10.2c0-.87.07-1.5.21-1.88.14-.39.39-.65.77-.79s.98-.23,1.8-.27v-.69c-1.07.07-2.52.1-4.35.1-1.96,0-3.43-.03-4.39-.1v.69c.82.05,1.42.14,1.8.27s.63.4.77.79c.14.39.21,1.02.21,1.88v17c0,.87-.07,1.5-.21,1.88-.14.39-.39.65-.77.79-.38.14-.98.23-1.8.27v.69c.96-.07,2.42-.1,4.39-.1,1.85,0,3.3.03,4.35.1v-.69Z"/>
      <path class="cls-1" d="M160.19,6.67c-4.55,0-7.77-.03-9.67-.1.16,1.62.24,3.08.24,4.39,0,1.14-.03,2.08-.1,2.81h.79c.18-1.76.41-3.07.69-3.92s.75-1.48,1.44-1.88,1.74-.6,3.15-.6h1.85v19.5c0,.96-.09,1.66-.27,2.09-.18.43-.5.73-.96.89s-1.2.26-2.23.31v.69c1.1-.07,2.79-.1,5.07-.1s3.85.03,5.04.1v-.69c-1.03-.05-1.77-.15-2.23-.31s-.78-.46-.96-.89-.27-1.13-.27-2.09V7.35h1.85c1.42,0,2.47.2,3.15.6s1.17,1.03,1.44,1.88c.27.86.5,2.17.69,3.92h.79c-.07-.73-.1-1.67-.1-2.81,0-1.3.08-2.76.24-4.39-1.9.07-5.11.1-9.63.1Z"/>
      <path class="cls-1" d="M195.01,30.14c-1.03-.05-1.82-.78-2.37-2.19l-8.36-21.56h-.55l-8.05,20.77c-.66,1.71-1.57,2.71-2.71,2.98v.69c.69-.07,1.54-.1,2.57-.1,1.33,0,2.64.03,3.94.1v-.69c-1.01-.02-1.75-.19-2.25-.51-.49-.32-.74-.83-.74-1.54,0-.64.23-1.58.69-2.81l1.41-3.63h8.29l2.09,5.62c.27.69.41,1.22.41,1.61,0,.46-.19.77-.57.94s-1,.28-1.87.33v.69c.96-.07,2.42-.1,4.39-.1,1.53,0,2.75.03,3.67.1v-.69ZM178.87,20.96l3.91-10.25,3.84,10.25h-7.75Z"/>
      <path class="cls-1" d="M217.22,23.63h-.79c-.16,1.69-.41,2.98-.75,3.87s-.89,1.54-1.63,1.94c-.74.4-1.82.6-3.24.6h-2.5c-.82,0-1.42-.06-1.8-.19s-.63-.38-.77-.77c-.14-.39-.21-1.02-.21-1.88V10.2c0-.87.07-1.5.21-1.88.14-.39.39-.65.77-.79s.98-.23,1.8-.27v-.69c-1.07.07-2.53.1-4.35.1-1.97,0-3.43-.03-4.39-.1v.69c.82.05,1.42.14,1.8.27s.63.4.77.79c.14.39.21,1.02.21,1.88v17c0,.87-.07,1.5-.21,1.88-.14.39-.39.65-.77.79-.38.14-.98.23-1.8.27v.69c2.24-.07,5.55-.1,9.94-.1,3.68,0,6.29.03,7.85.1-.16-1.62-.24-3.08-.24-4.39,0-1.17.03-2.1.1-2.81Z"/>
      <path class="cls-1" d="M223.73,6.56v.69c.82.05,1.42.14,1.8.27s.63.4.77.79c.14.39.21,1.02.21,1.88v17c0,.87-.07,1.5-.21,1.88-.14.39-.39.65-.77.79-.38.14-.98.23-1.8.27v.69c.96-.07,2.42-.1,4.39-.1,1.85,0,3.3.03,4.35.1v-.69c-.82-.05-1.42-.14-1.8-.27-.38-.14-.63-.4-.77-.79-.14-.39-.21-1.02-.21-1.88V10.2c0-.87.07-1.5.21-1.88.14-.39.39-.65.77-.79s.98-.23,1.8-.27v-.69c-1.07.07-2.52.1-4.35.1-1.96,0-3.43-.03-4.39-.1Z"/>
      <path class="cls-1" d="M257.97,10.95c0-1.3.08-2.76.24-4.39-1.9.07-5.11.1-9.63.1s-7.77-.03-9.67-.1c.16,1.62.24,3.08.24,4.39,0,1.14-.03,2.08-.1,2.81h.79c.18-1.76.41-3.07.68-3.92.27-.86.75-1.48,1.44-1.88.69-.4,1.74-.6,3.15-.6h1.85v19.5c0,.96-.09,1.66-.27,2.09s-.5.73-.96.89-1.2.26-2.23.31v.69c1.1-.07,2.79-.1,5.07-.1s3.85.03,5.04.1v-.69c-1.03-.05-1.77-.15-2.23-.31s-.78-.46-.96-.89c-.18-.43-.27-1.13-.27-2.09V7.35h1.85c1.42,0,2.47.2,3.15.6s1.17,1.03,1.44,1.88.5,2.17.69,3.92h.79c-.07-.73-.1-1.67-.1-2.81Z"/>
      <path class="cls-1" d="M280.79,6.67c-1.33,0-2.64-.03-3.94-.1v.69c1.01.02,1.76.17,2.26.45.5.27.75.73.75,1.37,0,.75-.31,1.74-.93,2.95l-4.39,8.71-5.69-10.93c-.23-.46-.34-.86-.34-1.2,0-.87.8-1.3,2.4-1.3v-.72c-.98.07-2.58.1-4.8.1-1.12,0-2.12-.03-3.02-.1v.72c.3,0,.6.13.91.39.31.26.67.77,1.08,1.52l6.96,12.85v5.14c0,.87-.07,1.5-.21,1.88-.14.39-.39.65-.77.79-.38.14-.98.23-1.8.27v.69c.96-.07,2.42-.1,4.39-.1,1.85,0,3.3.03,4.35.1v-.69c-.82-.05-1.42-.14-1.8-.27-.38-.14-.63-.4-.77-.79-.14-.39-.21-1.02-.21-1.88v-6.24l5.38-10.66c.5-.98.97-1.71,1.41-2.18.43-.47.88-.76,1.34-.87v-.69c-.68.07-1.54.1-2.57.1Z"/>
    </g>
  </g>
</svg>